<svg version="1.1" xmlns="http://www.w3.org/2000/svg" viewBox="0 0 649.3916015625 187.6171875" width="649.3916015625" height="187.6171875">
  <!-- svg-source:excalidraw -->
  
  <defs>
    <style>
      @font-face {
        font-family: "Virgil";
        src: url("https://excalidraw.com/Virgil.woff2");
      }
      @font-face {
        font-family: "Cascadia";
        src: url("https://excalidraw.com/Cascadia.woff2");
      }
    </style>
  </defs>
  <rect x="0" y="0" width="649.3916015625" height="187.6171875" fill="#ffffff"></rect><g stroke-linecap="round" transform="translate(49.83984375 48.67578125) rotate(0 22.052734375 22.72265625)"><path d="M14.45 0.91 C18.58 -0.88, 24.38 0.49, 28.96 2.28 C33.55 4.07, 39.36 7.69, 41.97 11.65 C44.58 15.61, 45.7 21.13, 44.63 26.02 C43.56 30.91, 39.44 37.8, 35.55 41 C31.65 44.2, 25.78 45.33, 21.27 45.22 C16.77 45.11, 11.9 43.35, 8.52 40.35 C5.15 37.35, 2.05 32, 1.01 27.23 C-0.03 22.47, -0.44 16.29, 2.28 11.75 C4.99 7.22, 13.97 2.07, 17.31 0.05 C20.64 -1.98, 21.98 -0.97, 22.31 -0.41 M29.5 -0.34 C33.84 0.66, 38.03 5.87, 40.53 10.42 C43.04 14.97, 45.11 22.1, 44.52 26.99 C43.93 31.87, 40.66 36.52, 36.98 39.73 C33.31 42.94, 27.2 46.33, 22.5 46.26 C17.79 46.2, 12.64 42.71, 8.73 39.34 C4.81 35.98, 0 30.67, -1 26.08 C-2 21.49, 0.19 15.63, 2.73 11.8 C5.27 7.97, 9.72 4.84, 14.23 3.09 C18.74 1.34, 27.55 1.79, 29.78 1.29 C32.02 0.8, 27.7 -0.04, 27.62 0.1" stroke="#000000" stroke-width="1" fill="none"></path></g><g transform="translate(54.83984375 58.8984375) rotate(0 17 12.5)"><text x="17" y="18" font-family="Virgil, Segoe UI Emoji" font-size="20px" fill="#000000" text-anchor="middle" style="white-space: pre;" direction="ltr">0</text></g><g stroke-linecap="round" transform="translate(168.009765625 49.875) rotate(0 22.052734375 22.72265625)"><path d="M11.59 2.44 C15.63 0.37, 23.48 0.44, 28.1 1.64 C32.71 2.83, 36.67 5.69, 39.28 9.62 C41.89 13.54, 44.05 20.45, 43.76 25.21 C43.47 29.98, 40.7 34.8, 37.53 38.2 C34.36 41.6, 29.27 44.99, 24.75 45.6 C20.22 46.22, 14.32 44.57, 10.38 41.89 C6.45 39.2, 2.5 34.3, 1.13 29.49 C-0.24 24.69, -0.12 17.82, 2.18 13.07 C4.48 8.32, 12.78 2.9, 14.95 0.99 C17.12 -0.93, 15.29 1.25, 15.19 1.58 M33.45 3.44 C37.5 5.17, 41.18 8.46, 42.67 12.8 C44.16 17.14, 43.69 24.66, 42.39 29.46 C41.09 34.25, 38.52 38.88, 34.85 41.56 C31.17 44.24, 25.17 45.84, 20.35 45.53 C15.53 45.23, 9.21 43.14, 5.94 39.73 C2.68 36.32, 0.8 30.12, 0.76 25.09 C0.72 20.06, 3.04 13.43, 5.69 9.53 C8.33 5.64, 12.07 3.03, 16.64 1.73 C21.22 0.43, 30.72 1.5, 33.13 1.74 C35.53 1.98, 31.23 2.59, 31.05 3.16" stroke="#000000" stroke-width="1" fill="none"></path></g><g transform="translate(173.009765625 60.09765625) rotate(0 17 12.5)"><text x="17" y="18" font-family="Virgil, Segoe UI Emoji" font-size="20px" fill="#000000" text-anchor="middle" style="white-space: pre;" direction="ltr">1</text></g><g stroke-linecap="round" transform="translate(272.009765625 46.875) rotate(0 22.052734375 22.72265625)"><path d="M31.87 3.38 C36.04 5.15, 40.09 9.21, 42.03 13.6 C43.98 17.99, 44.77 24.98, 43.55 29.75 C42.32 34.51, 38.67 39.51, 34.67 42.19 C30.68 44.87, 24.31 46.55, 19.55 45.81 C14.79 45.08, 9.24 41.52, 6.11 37.77 C2.98 34.02, 1.22 28.05, 0.79 23.3 C0.37 18.54, 0.94 13.13, 3.57 9.24 C6.21 5.35, 10.99 0.5, 16.59 -0.06 C22.19 -0.62, 33.44 4.18, 37.18 5.89 C40.91 7.61, 39.29 10.01, 39.01 10.24 M15.79 0.99 C20.23 -0.73, 26.78 -0.22, 31.05 1.84 C35.32 3.89, 39.18 8.92, 41.4 13.34 C43.62 17.77, 45.11 23.77, 44.38 28.36 C43.66 32.96, 40.95 37.9, 37.06 40.94 C33.18 43.97, 25.84 46.88, 21.09 46.57 C16.34 46.25, 12.16 42.4, 8.56 39.03 C4.97 35.67, 0.2 30.96, -0.5 26.38 C-1.2 21.8, 1.94 15.73, 4.36 11.55 C6.78 7.38, 12.39 2.77, 14.04 1.33 C15.68 -0.1, 14.13 2.46, 14.22 2.92" stroke="#000000" stroke-width="1" fill="none"></path></g><g transform="translate(277.009765625 57.09765625) rotate(0 17 12.5)"><text x="17" y="18" font-family="Virgil, Segoe UI Emoji" font-size="20px" fill="#000000" text-anchor="middle" style="white-space: pre;" direction="ltr">2</text></g><g stroke-linecap="round"><g transform="translate(97.5234375 72.90625) rotate(0 31.132748390990287 1.5985898848716147)"><path d="M0.35 0.66 C10.74 0.91, 52.62 1.75, 63.2 1.93 M-0.93 -0.04 C9.26 0.34, 51.66 2.77, 62.41 3.23" stroke="#000000" stroke-width="1" fill="none"></path></g><g transform="translate(97.5234375 72.90625) rotate(0 31.132748390990287 1.5985898848716147)"><path d="M34.83 12.56 C43.56 10.24, 53.89 3.59, 62.96 2.03 M33.47 13.02 C41.15 10.01, 46.67 7.17, 62.52 3.71" stroke="#000000" stroke-width="1" fill="none"></path></g><g transform="translate(97.5234375 72.90625) rotate(0 31.132748390990287 1.5985898848716147)"><path d="M35.88 -7.94 C44.29 -2.67, 54.24 -1.75, 62.96 2.03 M34.51 -7.47 C42.14 -5.59, 47.41 -3.55, 62.52 3.71" stroke="#000000" stroke-width="1" fill="none"></path></g></g><g stroke-linecap="round"><g transform="translate(213.2890625 72.376953125) rotate(0 31.04111299557144 1.415174854793591)"><path d="M0.7 0.65 C11.28 1.03, 52.11 2.74, 62.47 2.89 M-0.39 -0.06 C10.08 -0.09, 50.89 0.62, 61.3 1.03" stroke="#000000" stroke-width="1" fill="none"></path></g><g transform="translate(213.2890625 72.376953125) rotate(0 31.04111299557144 1.415174854793591)"><path d="M33.93 9.84 C39.88 8.22, 43.86 5.52, 61.32 1.89 M33.24 10.15 C39.07 8.2, 44.06 7.57, 60.99 0.18" stroke="#000000" stroke-width="1" fill="none"></path></g><g transform="translate(213.2890625 72.376953125) rotate(0 31.04111299557144 1.415174854793591)"><path d="M34.47 -10.68 C40.4 -7.79, 44.26 -6.01, 61.32 1.89 M33.79 -10.36 C39.64 -8.16, 44.51 -4.64, 60.99 0.18" stroke="#000000" stroke-width="1" fill="none"></path></g></g><g stroke-linecap="round" transform="translate(373.1162109375 129.28515625) rotate(0 22.052734375 22.72265625)"><path d="M22.27 0.47 C26.47 0.43, 31.65 2.97, 35.2 6.02 C38.74 9.07, 42.64 13.98, 43.54 18.76 C44.44 23.55, 42.79 30.45, 40.58 34.72 C38.37 38.99, 34.6 42.98, 30.29 44.38 C25.97 45.78, 19.19 44.77, 14.7 43.11 C10.21 41.45, 5.82 38.43, 3.35 34.4 C0.87 30.38, -0.81 23.76, -0.13 18.97 C0.54 14.17, 3.31 8.59, 7.42 5.61 C11.53 2.62, 21.29 1.8, 24.53 1.07 C27.78 0.35, 26.9 0.87, 26.86 1.25 M24.67 0.14 C29.08 0.49, 33.86 4.06, 37.18 7.62 C40.49 11.17, 44.26 16.84, 44.57 21.48 C44.88 26.13, 41.75 31.62, 39.04 35.49 C36.34 39.37, 32.79 43.52, 28.35 44.75 C23.91 45.97, 16.6 44.85, 12.4 42.83 C8.2 40.8, 4.91 36.95, 3.15 32.58 C1.38 28.22, 0.62 21.43, 1.82 16.62 C3.02 11.8, 6.69 6.58, 10.33 3.68 C13.98 0.77, 21.06 -0.5, 23.67 -0.8 C26.29 -1.11, 25.73 1.44, 26.01 1.85" stroke="#000000" stroke-width="1" fill="none"></path></g><g transform="translate(378.1162109375 139.5078125) rotate(0 17 12.5)"><text x="17" y="18" font-family="Virgil, Segoe UI Emoji" font-size="20px" fill="#000000" text-anchor="middle" style="white-space: pre;" direction="ltr">3</text></g><g stroke-linecap="round" transform="translate(491.2861328125 130.484375) rotate(0 22.052734375 22.72265625)"><path d="M11.97 2.8 C15.85 0.56, 23.15 -0.39, 27.76 0.91 C32.37 2.21, 36.82 6.53, 39.63 10.59 C42.43 14.65, 44.95 20.71, 44.61 25.27 C44.27 29.83, 41.01 34.56, 37.6 37.95 C34.18 41.35, 28.91 45.06, 24.1 45.62 C19.3 46.17, 12.74 44.14, 8.77 41.3 C4.8 38.47, 1.39 33.19, 0.3 28.62 C-0.79 24.04, -0.65 18.5, 2.23 13.85 C5.1 9.2, 14.18 2.8, 17.54 0.72 C20.9 -1.36, 22.27 1.11, 22.38 1.38 M20.75 0.38 C25.34 0.02, 32.78 2.2, 36.5 5.06 C40.23 7.93, 42.09 12.8, 43.11 17.57 C44.13 22.35, 44.78 29.33, 42.64 33.71 C40.49 38.09, 34.65 41.93, 30.24 43.84 C25.83 45.75, 20.56 46.66, 16.18 45.17 C11.8 43.68, 6.55 39.24, 3.95 34.89 C1.35 30.54, 0.13 24.15, 0.56 19.09 C1 14.03, 2.83 7.51, 6.58 4.53 C10.33 1.55, 20.4 2.04, 23.08 1.22 C25.75 0.41, 22.94 -0.75, 22.65 -0.33" stroke="#000000" stroke-width="1" fill="none"></path></g><g transform="translate(496.2861328125 140.70703125) rotate(0 17 12.5)"><text x="17" y="18" font-family="Virgil, Segoe UI Emoji" font-size="20px" fill="#000000" text-anchor="middle" style="white-space: pre;" direction="ltr">4</text></g><g stroke-linecap="round" transform="translate(595.2861328125 127.484375) rotate(0 22.052734375 22.72265625)"><path d="M26.92 0.69 C31.41 1.46, 36.16 5.92, 39.12 9.87 C42.08 13.82, 44.83 19.8, 44.68 24.38 C44.52 28.95, 41.49 33.79, 38.2 37.32 C34.92 40.84, 29.75 44.78, 24.96 45.53 C20.18 46.28, 13.55 44.48, 9.48 41.81 C5.41 39.13, 1.8 34, 0.54 29.47 C-0.73 24.95, -0.07 19.13, 1.87 14.66 C3.81 10.19, 7.55 4.72, 12.17 2.66 C16.79 0.59, 26.32 2.32, 29.6 2.28 C32.89 2.24, 32.03 2.22, 31.89 2.41 M22.35 -0.07 C26.9 -0.62, 31.67 1.18, 35.46 4.27 C39.25 7.36, 44.06 13.54, 45.08 18.45 C46.11 23.37, 43.94 29.35, 41.63 33.77 C39.31 38.2, 35.53 43.18, 31.18 45 C26.84 46.82, 20.19 46.48, 15.55 44.7 C10.91 42.91, 6.05 38.73, 3.33 34.28 C0.61 29.83, -1.73 22.61, -0.78 18 C0.17 13.4, 5.11 9.8, 9.03 6.67 C12.95 3.54, 20.67 0.01, 22.73 -0.79 C24.78 -1.59, 21.48 1.53, 21.38 1.88" stroke="#000000" stroke-width="1" fill="none"></path></g><g transform="translate(600.2861328125 137.70703125) rotate(0 17 12.5)"><text x="17" y="18" font-family="Virgil, Segoe UI Emoji" font-size="20px" fill="#000000" text-anchor="middle" style="white-space: pre;" direction="ltr">5</text></g><g stroke-linecap="round"><g transform="translate(420.7998046875 153.515625) rotate(0 31.59922660035545 1.1836600771034114)"><path d="M0.56 -1.15 C11.36 -0.86, 53.4 1.65, 63.81 2.12 M-0.61 0.85 C10.21 1.29, 52.86 3.24, 63.34 3.52" stroke="#000000" stroke-width="1" fill="none"></path></g><g transform="translate(420.7998046875 153.515625) rotate(0 31.59922660035545 1.1836600771034114)"><path d="M32.86 14.24 C40.45 10.76, 45.78 10.06, 64.55 4.2 M35.02 12.26 C43.85 9.36, 52.85 6.97, 64.28 3.54" stroke="#000000" stroke-width="1" fill="none"></path></g><g transform="translate(420.7998046875 153.515625) rotate(0 31.59922660035545 1.1836600771034114)"><path d="M33.63 -6.27 C41.13 -5.34, 46.29 -1.63, 64.55 4.2 M35.79 -8.25 C44.18 -4.77, 52.94 -0.79, 64.28 3.54" stroke="#000000" stroke-width="1" fill="none"></path></g></g><g stroke-linecap="round"><g transform="translate(536.5654296875 152.986328125) rotate(0 30.73871232494713 2.2023625620547875)"><path d="M-1.15 0.92 C9.22 1.23, 52.08 2.08, 62.63 2.47 M0.44 0.35 C10.6 0.83, 50.85 3.89, 61.55 4.05" stroke="#000000" stroke-width="1" fill="none"></path></g><g transform="translate(536.5654296875 152.986328125) rotate(0 30.73871232494713 2.2023625620547875)"><path d="M34.42 12.5 C42.48 9.03, 53.25 8.54, 62.22 4.27 M32.44 13.02 C38.21 11.31, 44.41 10.24, 61.57 4.29" stroke="#000000" stroke-width="1" fill="none"></path></g><g transform="translate(536.5654296875 152.986328125) rotate(0 30.73871232494713 2.2023625620547875)"><path d="M35.42 -8 C43.25 -4.69, 53.68 1.6, 62.22 4.27 M33.44 -7.47 C39.08 -5.08, 45.08 -2.04, 61.57 4.29" stroke="#000000" stroke-width="1" fill="none"></path></g></g><g stroke-linecap="round" transform="translate(47.5732421875 130.97265625) rotate(0 22.052734375 22.72265625)"><path d="M12.6 3.6 C16.19 1.16, 21.36 -1.18, 25.98 -0.25 C30.6 0.68, 37.37 5.1, 40.32 9.17 C43.28 13.24, 43.89 19.53, 43.72 24.17 C43.56 28.81, 42.57 33.33, 39.34 37 C36.11 40.66, 29.13 45.22, 24.35 46.16 C19.57 47.1, 14.39 45.24, 10.64 42.64 C6.89 40.04, 3.28 35.4, 1.86 30.55 C0.44 25.69, 0.1 18.26, 2.11 13.51 C4.13 8.75, 11.73 4.1, 13.94 2.03 C16.16 -0.04, 15.23 0.86, 15.39 1.08 M24.65 1.72 C29.24 2.16, 34.86 2.77, 38.31 6.44 C41.77 10.12, 45.45 18.53, 45.39 23.75 C45.32 28.97, 41.14 34.21, 37.92 37.77 C34.7 41.32, 30.45 44.24, 26.05 45.1 C21.65 45.96, 15.61 45.33, 11.52 42.94 C7.42 40.54, 3.25 35.29, 1.45 30.73 C-0.35 26.18, -0.93 20.11, 0.71 15.59 C2.34 11.06, 7.25 6.29, 11.25 3.57 C15.26 0.85, 22.47 -0.47, 24.74 -0.75 C27 -1.02, 24.88 1.41, 24.85 1.9" stroke="#087f5b" stroke-width="1" fill="none"></path></g><g transform="translate(52.5732421875 141.1953125) rotate(0 17 12.5)"><text x="17" y="18" font-family="Virgil, Segoe UI Emoji" font-size="20px" fill="#087f5b" text-anchor="middle" style="white-space: pre;" direction="ltr">0</text></g><g stroke-linecap="round" transform="translate(165.7431640625 132.171875) rotate(0 22.052734375 22.72265625)"><path d="M13.33 0.87 C17.39 -1.18, 25.41 -0.13, 29.93 1.65 C34.45 3.42, 37.99 7.6, 40.45 11.52 C42.92 15.44, 45.49 20.29, 44.73 25.14 C43.96 30, 39.51 37.16, 35.87 40.65 C32.23 44.13, 27.36 45.94, 22.9 46.04 C18.45 46.15, 12.78 44.53, 9.13 41.28 C5.48 38.03, 2.03 31.38, 0.99 26.54 C-0.05 21.71, 0.36 16.63, 2.86 12.28 C5.37 7.93, 13.18 2.46, 16.01 0.43 C18.85 -1.59, 19.62 -0.17, 19.87 0.14 M11.43 1.29 C15.62 -1.12, 23.55 0.61, 28.01 2 C32.47 3.38, 35.55 5.98, 38.18 9.6 C40.82 13.21, 43.77 18.91, 43.82 23.69 C43.87 28.48, 41.62 34.75, 38.48 38.31 C35.35 41.87, 29.78 44.41, 25 45.05 C20.22 45.69, 13.7 44.67, 9.81 42.15 C5.92 39.63, 3.14 34.79, 1.66 29.95 C0.18 25.11, -0.67 17.46, 0.93 13.11 C2.53 8.75, 9.5 5.53, 11.25 3.8 C13 2.06, 11.25 2.72, 11.44 2.72" stroke="#087f5b" stroke-width="1" fill="none"></path></g><g transform="translate(170.7431640625 142.39453125) rotate(0 17 12.5)"><text x="17" y="18" font-family="Virgil, Segoe UI Emoji" font-size="20px" fill="#087f5b" text-anchor="middle" style="white-space: pre;" direction="ltr">1</text></g><g stroke-linecap="round" transform="translate(269.7431640625 129.171875) rotate(0 22.052734375 22.72265625)"><path d="M32.63 2.78 C36.83 4.79, 39.91 9.97, 41.82 14.18 C43.73 18.4, 45.49 23.37, 44.11 28.09 C42.74 32.8, 37.58 39.52, 33.56 42.49 C29.54 45.47, 24.42 46.47, 19.98 45.93 C15.55 45.39, 10.2 42.99, 6.96 39.26 C3.73 35.53, 1.01 28.48, 0.59 23.56 C0.17 18.64, 1.84 13.59, 4.42 9.73 C7 5.88, 10.95 1.43, 16.07 0.42 C21.19 -0.59, 31.57 2.73, 35.14 3.7 C38.72 4.66, 37.97 5.92, 37.53 6.22 M33.57 4.07 C37.52 6.32, 39.6 10.6, 41.14 14.87 C42.68 19.14, 44 25.13, 42.8 29.69 C41.6 34.25, 37.91 39.67, 33.96 42.23 C30.01 44.79, 23.87 45.72, 19.09 45.06 C14.31 44.39, 8.36 41.76, 5.28 38.24 C2.2 34.72, 0.86 29.02, 0.62 23.95 C0.39 18.88, 1.18 11.54, 3.88 7.83 C6.58 4.12, 12.16 2.63, 16.8 1.71 C21.45 0.78, 29.27 2.22, 31.74 2.29 C34.22 2.37, 31.61 1.63, 31.66 2.17" stroke="#087f5b" stroke-width="1" fill="none"></path></g><g transform="translate(274.7431640625 139.39453125) rotate(0 17 12.5)"><text x="17" y="18" font-family="Virgil, Segoe UI Emoji" font-size="20px" fill="#087f5b" text-anchor="middle" style="white-space: pre;" direction="ltr">2</text></g><g stroke-linecap="round"><g transform="translate(95.2568359375 155.203125) rotate(0 32.22822347129696 1.3990169428288937)"><path d="M1.09 -0.7 C11.57 -0.31, 51.61 3.06, 62.01 3.5 M0.2 1.54 C11.14 2.14, 53.79 1.72, 64.26 1.97" stroke="#087f5b" stroke-width="1" fill="none"></path></g><g transform="translate(95.2568359375 155.203125) rotate(0 32.22822347129696 1.3990169428288937)"><path d="M34.84 10.61 C44.12 10.54, 47.85 8.73, 65.97 0.21 M36.62 12.84 C42.75 10.37, 47.34 7.87, 64.61 1.34" stroke="#087f5b" stroke-width="1" fill="none"></path></g><g transform="translate(95.2568359375 155.203125) rotate(0 32.22822347129696 1.3990169428288937)"><path d="M34.95 -9.91 C44.41 -5.38, 48.11 -2.58, 65.97 0.21 M36.73 -7.69 C43.03 -5.72, 47.6 -3.79, 64.61 1.34" stroke="#087f5b" stroke-width="1" fill="none"></path></g></g><g stroke-linecap="round"><g transform="translate(211.0224609375 154.673828125) rotate(0 31.654876317828894 1.0445035435259342)"><path d="M-0.7 -0.88 C9.77 -0.57, 53.49 2.28, 64.01 2.97 M1.13 1.27 C11.44 1.75, 53.6 1.14, 63.65 1.16" stroke="#087f5b" stroke-width="1" fill="none"></path></g><g transform="translate(211.0224609375 154.673828125) rotate(0 31.654876317828894 1.0445035435259342)"><path d="M34.06 13.48 C47.56 6.89, 59.17 5.2, 61.9 -0.52 M36.29 12.34 C47.14 6.54, 57.93 3.54, 63.02 0.9" stroke="#087f5b" stroke-width="1" fill="none"></path></g><g transform="translate(211.0224609375 154.673828125) rotate(0 31.654876317828894 1.0445035435259342)"><path d="M33.93 -7.04 C47.67 -5.5, 59.32 0.94, 61.9 -0.52 M36.15 -8.18 C47.1 -5.88, 57.94 -0.79, 63.02 0.9" stroke="#087f5b" stroke-width="1" fill="none"></path></g></g><g stroke-linecap="round"><g transform="translate(322.6171875 152.11328125) rotate(0 22.57622839761433 0.02503887551074513)"><path d="M1.17 -0.93 C8.65 -1.05, 37.62 -1.31, 44.82 -0.99 M0.33 1.19 C7.62 1.22, 35.94 0.4, 43.69 0.07" stroke="#087f5b" stroke-width="1" fill="none"></path></g><g transform="translate(322.6171875 152.11328125) rotate(0 22.57622839761433 0.02503887551074513)"><path d="M21.19 7.94 C27.45 4.49, 36.98 1.31, 44.74 1.82 M22.14 9.03 C27.59 6.98, 33.38 3.14, 44.6 0.49" stroke="#087f5b" stroke-width="1" fill="none"></path></g><g transform="translate(322.6171875 152.11328125) rotate(0 22.57622839761433 0.02503887551074513)"><path d="M20.66 -7.5 C27.04 -6.36, 36.72 -4.95, 44.74 1.82 M21.61 -6.41 C27.08 -4.25, 33.01 -3.9, 44.6 0.49" stroke="#087f5b" stroke-width="1" fill="none"></path></g></g><g transform="translate(37.74609375 10) rotate(0 11.5 12.5)"><text x="0" y="18" font-family="Virgil, Segoe UI Emoji" font-size="20px" fill="#000000" text-anchor="start" style="white-space: pre;" direction="ltr">xs</text></g><g transform="translate(10 105.32421875) rotate(0 12 12.5)"><text x="0" y="18" font-family="Virgil, Segoe UI Emoji" font-size="20px" fill="#087f5b" text-anchor="start" style="white-space: pre;" direction="ltr">zs</text></g><g transform="translate(391.359375 76.46875) rotate(0 10.5 12.5)"><text x="0" y="18" font-family="Virgil, Segoe UI Emoji" font-size="20px" fill="#000000" text-anchor="start" style="white-space: pre;" direction="ltr">ys</text></g><g stroke-linecap="round"><g transform="translate(67.5703125 19.94140625) rotate(0 6.978369361716318 15.271145375189377)"><path d="M-0.15 -0.62 C2.37 4.16, 13.04 24.62, 15.65 29.75 M-1.7 1.67 C0.71 7.14, 12.45 26.17, 15.27 31.16" stroke="#000000" stroke-width="1" fill="none"></path></g><g transform="translate(67.5703125 19.94140625) rotate(0 6.978369361716318 15.271145375189377)"><path d="M1.52 22.06 C6.58 25.52, 11.63 29.28, 15.49 31.89 M1.69 20.15 C6.05 23.88, 8.35 26.46, 15.44 31.46" stroke="#000000" stroke-width="1" fill="none"></path></g><g transform="translate(67.5703125 19.94140625) rotate(0 6.978369361716318 15.271145375189377)"><path d="M11.35 16.26 C13.07 21.7, 14.75 27.46, 15.49 31.89 M11.51 14.35 C13.46 19.48, 13.29 23.52, 15.44 31.46" stroke="#000000" stroke-width="1" fill="none"></path></g></g><g stroke-linecap="round"><g transform="translate(35.92578125 119.57421875) rotate(0 6.673581018107939 13.516746963527964)"><path d="M0.77 1.03 C2.85 5.41, 11.75 22.32, 13.63 26.5 M-0.29 0.53 C1.59 4.52, 10.55 20.09, 13.01 24.58" stroke="#087f5b" stroke-width="1" fill="none"></path></g><g transform="translate(35.92578125 119.57421875) rotate(0 6.673581018107939 13.516746963527964)"><path d="M3.2 15.8 C6.78 17.56, 10.68 23.74, 13.25 23.29 M2.39 14.94 C6.09 18.13, 11.26 23.06, 13.07 24.7" stroke="#087f5b" stroke-width="1" fill="none"></path></g><g transform="translate(35.92578125 119.57421875) rotate(0 6.673581018107939 13.516746963527964)"><path d="M11.91 10.91 C12.07 14.65, 12.54 22.75, 13.25 23.29 M11.1 10.06 C11.46 15.06, 13.26 21.89, 13.07 24.7" stroke="#087f5b" stroke-width="1" fill="none"></path></g></g><g stroke-linecap="round"><g transform="translate(408.0625 110.49609375) rotate(0 -1.2035930417478085 10.037556162425318)"><path d="M0.87 -1.02 C0.46 2.48, -2.65 16.46, -3.28 19.89 M-0.13 1.06 C-0.07 4.81, -0.3 17.87, -0.91 21.09" stroke="#000000" stroke-width="1" fill="none"></path></g><g transform="translate(408.0625 110.49609375) rotate(0 -1.2035930417478085 10.037556162425318)"><path d="M-4.45 10.52 C-3.61 13.14, -3.27 16.24, -0.75 21.39 M-3.87 11.43 C-2.72 14.33, -1.14 19.04, -1.16 21.42" stroke="#000000" stroke-width="1" fill="none"></path></g><g transform="translate(408.0625 110.49609375) rotate(0 -1.2035930417478085 10.037556162425318)"><path d="M2.6 11.15 C1.83 13.67, 0.53 16.63, -0.75 21.39 M3.18 12.06 C1.71 14.7, 0.65 19.18, -1.16 21.42" stroke="#000000" stroke-width="1" fill="none"></path></g></g></svg>