<svg version="1.1" xmlns="http://www.w3.org/2000/svg" viewBox="0 0 403.7236328125 119.4609375" width="403.7236328125" height="119.4609375">
  <!-- svg-source:excalidraw -->
  
  <defs>
    <style>
      @font-face {
        font-family: "Virgil";
        src: url("https://excalidraw.com/Virgil.woff2");
      }
      @font-face {
        font-family: "Cascadia";
        src: url("https://excalidraw.com/Cascadia.woff2");
      }
    </style>
  </defs>
  <rect x="0" y="0" width="403.7236328125" height="119.4609375" fill="#ffffff"></rect><g stroke-linecap="round" transform="translate(127.4482421875 62.81640625) rotate(0 22.052734375 22.72265625)"><path d="M22.27 0.47 C26.47 0.43, 31.65 2.97, 35.2 6.02 C38.74 9.07, 42.64 13.98, 43.54 18.76 C44.44 23.55, 42.79 30.45, 40.58 34.72 C38.37 38.99, 34.6 42.98, 30.29 44.38 C25.97 45.78, 19.19 44.77, 14.7 43.11 C10.21 41.45, 5.82 38.43, 3.35 34.4 C0.87 30.38, -0.81 23.76, -0.13 18.97 C0.54 14.17, 3.31 8.59, 7.42 5.61 C11.53 2.62, 21.29 1.8, 24.53 1.07 C27.78 0.35, 26.9 0.87, 26.86 1.25 M24.67 0.14 C29.08 0.49, 33.86 4.06, 37.18 7.62 C40.49 11.17, 44.26 16.84, 44.57 21.48 C44.88 26.13, 41.75 31.62, 39.04 35.49 C36.34 39.37, 32.79 43.52, 28.35 44.75 C23.91 45.97, 16.6 44.85, 12.4 42.83 C8.2 40.8, 4.91 36.95, 3.15 32.58 C1.38 28.22, 0.62 21.43, 1.82 16.62 C3.02 11.8, 6.69 6.58, 10.33 3.68 C13.98 0.77, 21.06 -0.5, 23.67 -0.8 C26.29 -1.11, 25.73 1.44, 26.01 1.85" stroke="#000000" stroke-width="1" fill="none"></path></g><g transform="translate(132.4482421875 73.0390625) rotate(0 17 12.5)"><text x="17" y="18" font-family="Virgil, Segoe UI Emoji" font-size="20px" fill="#000000" text-anchor="middle" style="white-space: pre;" direction="ltr">3</text></g><g stroke-linecap="round" transform="translate(245.6181640625 64.015625) rotate(0 22.052734375 22.72265625)"><path d="M11.97 2.8 C15.85 0.56, 23.15 -0.39, 27.76 0.91 C32.37 2.21, 36.82 6.53, 39.63 10.59 C42.43 14.65, 44.95 20.71, 44.61 25.27 C44.27 29.83, 41.01 34.56, 37.6 37.95 C34.18 41.35, 28.91 45.06, 24.1 45.62 C19.3 46.17, 12.74 44.14, 8.77 41.3 C4.8 38.47, 1.39 33.19, 0.3 28.62 C-0.79 24.04, -0.65 18.5, 2.23 13.85 C5.1 9.2, 14.18 2.8, 17.54 0.72 C20.9 -1.36, 22.27 1.11, 22.38 1.38 M20.75 0.38 C25.34 0.02, 32.78 2.2, 36.5 5.06 C40.23 7.93, 42.09 12.8, 43.11 17.57 C44.13 22.35, 44.78 29.33, 42.64 33.71 C40.49 38.09, 34.65 41.93, 30.24 43.84 C25.83 45.75, 20.56 46.66, 16.18 45.17 C11.8 43.68, 6.55 39.24, 3.95 34.89 C1.35 30.54, 0.13 24.15, 0.56 19.09 C1 14.03, 2.83 7.51, 6.58 4.53 C10.33 1.55, 20.4 2.04, 23.08 1.22 C25.75 0.41, 22.94 -0.75, 22.65 -0.33" stroke="#000000" stroke-width="1" fill="none"></path></g><g transform="translate(250.6181640625 74.23828125) rotate(0 17 12.5)"><text x="17" y="18" font-family="Virgil, Segoe UI Emoji" font-size="20px" fill="#000000" text-anchor="middle" style="white-space: pre;" direction="ltr">2</text></g><g stroke-linecap="round" transform="translate(349.6181640625 61.015625) rotate(0 22.052734375 22.72265625)"><path d="M26.92 0.69 C31.41 1.46, 36.16 5.92, 39.12 9.87 C42.08 13.82, 44.83 19.8, 44.68 24.38 C44.52 28.95, 41.49 33.79, 38.2 37.32 C34.92 40.84, 29.75 44.78, 24.96 45.53 C20.18 46.28, 13.55 44.48, 9.48 41.81 C5.41 39.13, 1.8 34, 0.54 29.47 C-0.73 24.95, -0.07 19.13, 1.87 14.66 C3.81 10.19, 7.55 4.72, 12.17 2.66 C16.79 0.59, 26.32 2.32, 29.6 2.28 C32.89 2.24, 32.03 2.22, 31.89 2.41 M22.35 -0.07 C26.9 -0.62, 31.67 1.18, 35.46 4.27 C39.25 7.36, 44.06 13.54, 45.08 18.45 C46.11 23.37, 43.94 29.35, 41.63 33.77 C39.31 38.2, 35.53 43.18, 31.18 45 C26.84 46.82, 20.19 46.48, 15.55 44.7 C10.91 42.91, 6.05 38.73, 3.33 34.28 C0.61 29.83, -1.73 22.61, -0.78 18 C0.17 13.4, 5.11 9.8, 9.03 6.67 C12.95 3.54, 20.67 0.01, 22.73 -0.79 C24.78 -1.59, 21.48 1.53, 21.38 1.88" stroke="#000000" stroke-width="1" fill="none"></path></g><g transform="translate(354.6181640625 71.23828125) rotate(0 17 12.5)"><text x="17" y="18" font-family="Virgil, Segoe UI Emoji" font-size="20px" fill="#000000" text-anchor="middle" style="white-space: pre;" direction="ltr">1</text></g><g stroke-linecap="round"><g transform="translate(175.1318359375 87.046875) rotate(0 31.59922660035545 1.1836600771034114)"><path d="M0.56 -1.15 C11.36 -0.86, 53.4 1.65, 63.81 2.12 M-0.61 0.85 C10.21 1.29, 52.86 3.24, 63.34 3.52" stroke="#000000" stroke-width="1" fill="none"></path></g><g transform="translate(175.1318359375 87.046875) rotate(0 31.59922660035545 1.1836600771034114)"><path d="M32.86 14.24 C40.45 10.76, 45.78 10.06, 64.55 4.2 M35.02 12.26 C43.85 9.36, 52.85 6.97, 64.28 3.54" stroke="#000000" stroke-width="1" fill="none"></path></g><g transform="translate(175.1318359375 87.046875) rotate(0 31.59922660035545 1.1836600771034114)"><path d="M33.63 -6.27 C41.13 -5.34, 46.29 -1.63, 64.55 4.2 M35.79 -8.25 C44.18 -4.77, 52.94 -0.79, 64.28 3.54" stroke="#000000" stroke-width="1" fill="none"></path></g></g><g stroke-linecap="round"><g transform="translate(290.8974609375 86.517578125) rotate(0 30.73871232494713 2.2023625620547875)"><path d="M-1.15 0.92 C9.22 1.23, 52.08 2.08, 62.63 2.47 M0.44 0.35 C10.6 0.83, 50.85 3.89, 61.55 4.05" stroke="#000000" stroke-width="1" fill="none"></path></g><g transform="translate(290.8974609375 86.517578125) rotate(0 30.73871232494713 2.2023625620547875)"><path d="M34.42 12.5 C42.48 9.03, 53.25 8.54, 62.22 4.27 M32.44 13.02 C38.21 11.31, 44.41 10.24, 61.57 4.29" stroke="#000000" stroke-width="1" fill="none"></path></g><g transform="translate(290.8974609375 86.517578125) rotate(0 30.73871232494713 2.2023625620547875)"><path d="M35.42 -8 C43.25 -4.69, 53.68 1.6, 62.22 4.27 M33.44 -7.47 C39.08 -5.08, 45.08 -2.04, 61.57 4.29" stroke="#000000" stroke-width="1" fill="none"></path></g></g><g stroke-linecap="round" transform="translate(24.0751953125 62.703125) rotate(0 22.052734375 22.72265625)"><path d="M32.63 2.78 C36.83 4.79, 39.91 9.97, 41.82 14.18 C43.73 18.4, 45.49 23.37, 44.11 28.09 C42.74 32.8, 37.58 39.52, 33.56 42.49 C29.54 45.47, 24.42 46.47, 19.98 45.93 C15.55 45.39, 10.2 42.99, 6.96 39.26 C3.73 35.53, 1.01 28.48, 0.59 23.56 C0.17 18.64, 1.84 13.59, 4.42 9.73 C7 5.88, 10.95 1.43, 16.07 0.42 C21.19 -0.59, 31.57 2.73, 35.14 3.7 C38.72 4.66, 37.97 5.92, 37.53 6.22 M33.57 4.07 C37.52 6.32, 39.6 10.6, 41.14 14.87 C42.68 19.14, 44 25.13, 42.8 29.69 C41.6 34.25, 37.91 39.67, 33.96 42.23 C30.01 44.79, 23.87 45.72, 19.09 45.06 C14.31 44.39, 8.36 41.76, 5.28 38.24 C2.2 34.72, 0.86 29.02, 0.62 23.95 C0.39 18.88, 1.18 11.54, 3.88 7.83 C6.58 4.12, 12.16 2.63, 16.8 1.71 C21.45 0.78, 29.27 2.22, 31.74 2.29 C34.22 2.37, 31.61 1.63, 31.66 2.17" stroke="#087f5b" stroke-width="1" fill="none"></path></g><g transform="translate(29.0751953125 72.92578125) rotate(0 17 12.5)"><text x="17" y="18" font-family="Virgil, Segoe UI Emoji" font-size="20px" fill="#087f5b" text-anchor="middle" style="white-space: pre;" direction="ltr">4</text></g><g stroke-linecap="round"><g transform="translate(76.94921875 85.64453125) rotate(0 22.57622839761433 0.02503887551074513)"><path d="M1.17 -0.93 C8.65 -1.05, 37.62 -1.31, 44.82 -0.99 M0.33 1.19 C7.62 1.22, 35.94 0.4, 43.69 0.07" stroke="#087f5b" stroke-width="1" fill="none"></path></g><g transform="translate(76.94921875 85.64453125) rotate(0 22.57622839761433 0.02503887551074513)"><path d="M21.19 7.94 C27.45 4.49, 36.98 1.31, 44.74 1.82 M22.14 9.03 C27.59 6.98, 33.38 3.14, 44.6 0.49" stroke="#087f5b" stroke-width="1" fill="none"></path></g><g transform="translate(76.94921875 85.64453125) rotate(0 22.57622839761433 0.02503887551074513)"><path d="M20.66 -7.5 C27.04 -6.36, 36.72 -4.95, 44.74 1.82 M21.61 -6.41 C27.08 -4.25, 33.01 -3.9, 44.6 0.49" stroke="#087f5b" stroke-width="1" fill="none"></path></g></g><g transform="translate(145.69140625 10) rotate(0 6 12.5)"><text x="0" y="18" font-family="Virgil, Segoe UI Emoji" font-size="20px" fill="#000000" text-anchor="start" style="white-space: pre;" direction="ltr">x</text></g><g stroke-linecap="round"><g transform="translate(158.3141883384601 44.00583575527321) rotate(0 -0.04570305124769902 9.452423375786083)"><path d="M0.87 -1.02 C0.8 2.29, -0.96 15.49, -1.25 18.72 M-0.13 1.06 C0.26 4.61, 1.39 16.9, 1.12 19.92" stroke="#000000" stroke-width="1" fill="none"></path></g><g transform="translate(158.3141883384601 44.00583575527321) rotate(0 -0.04570305124769902 9.452423375786083)"><path d="M-3.16 10.34 C-2.15 12.71, -1.61 15.55, 1.27 20.2 M-2.62 11.19 C-1.18 13.79, 0.65 18.08, 0.88 20.23" stroke="#000000" stroke-width="1" fill="none"></path></g><g transform="translate(158.3141883384601 44.00583575527321) rotate(0 -0.04570305124769902 9.452423375786083)"><path d="M3.47 10.24 C2.95 12.68, 1.96 15.54, 1.27 20.2 M4.01 11.09 C2.98 13.71, 2.34 18.04, 0.88 20.23" stroke="#000000" stroke-width="1" fill="none"></path></g></g><g transform="translate(10 23.57421875) rotate(0 5.5 12.5)"><text x="0" y="18" font-family="Virgil, Segoe UI Emoji" font-size="20px" fill="#087f5b" text-anchor="start" style="white-space: pre;" direction="ltr">y</text></g><g stroke-linecap="round"><g transform="translate(28.4375 45.87890625) rotate(0 5.079016456431759 9.854841961711656)"><path d="M0.98 -0.94 C2.66 2.5, 8.83 16.99, 10.13 20.65 M0.03 1.18 C1.59 4.29, 7.53 15.95, 9.39 18.97" stroke="#087f5b" stroke-width="1" fill="none"></path></g><g transform="translate(28.4375 45.87890625) rotate(0 5.079016456431759 9.854841961711656)"><path d="M0.19 12.1 C4.35 12.98, 7.18 16.87, 9.59 18.96 M1.36 11.9 C3.53 13.43, 5.76 16.36, 8.92 18.46" stroke="#087f5b" stroke-width="1" fill="none"></path></g><g transform="translate(28.4375 45.87890625) rotate(0 5.079016456431759 9.854841961711656)"><path d="M6.79 8.44 C8.95 10.47, 9.8 15.47, 9.59 18.96 M7.95 8.23 C8.26 10.76, 8.59 14.74, 8.92 18.46" stroke="#087f5b" stroke-width="1" fill="none"></path></g></g></svg>